<?xml version="1.0" encoding="UTF-8"?>
<svg id="Layer_1" xmlns="http://www.w3.org/2000/svg" version="1.1" viewBox="0 0 159.73 67">
  <!-- Generator: Adobe Illustrator 30.2.1, SVG Export Plug-In . SVG Version: 2.1.1 Build 1)  -->
  <defs>
    <style>
      .st0 {
        fill: #f6b3d0;
      }

      .st1 {
        fill: #754c29;
      }

      .st2 {
        fill: #c3996b;
      }

      .st3 {
        fill: #754c28;
      }

      .st4 {
        fill: #d85d80;
        font-family: MillerBannerExtraCompressed-BlackItalic, 'Miller Banner Extra Compressed';
        font-size: 9px;
        font-style: italic;
        font-weight: 800;
        opacity: .99;
      }
    </style>
  </defs>
  <path class="st2" d="M50.51,6.89c-14.58,2.31-27.33,6.71-38.07,13.14-.88.52-1.74,1.06-2.59,1.61-1.23.8-2.44,1.63-3.62,2.49-1.06.77-2.1,1.57-3.11,2.38C1.13,28.13,0,30.58,0,33.23s1.16,5.06,3.16,6.59c1.02.78,2.06,1.53,3.12,2.25,1.18.81,2.4,1.59,3.64,2.34.85.52,1.72,1.02,2.6,1.51,10.76,5.97,23.54,9.85,38.13,11.54,15.29,1.78,32.6,1.18,51.43-1.77,21.81-3.42,40.68-9.26,50.61-12.68,1.48-.51,2.76-.97,3.82-1.35,1.56-.57,2.65-.98,3.21-1.2v-1.59s-.05-17.94-.05-17.94v-1.59c-.56-.19-1.65-.56-3.21-1.07-1.04-.33-2.28-.72-3.71-1.16-9.92-3-28.89-8.09-50.82-10.61-18.84-2.16-36.15-2.04-51.43.38ZM16.61,43.77c3.97-.08,7.95-.17,11.92-.25,5.53-.12,11.05-.23,16.58-.35,6.52-.14,13.03-.27,19.55-.41,7.04-.15,14.08-.29,21.11-.44,6.92-.14,13.85-.29,20.77-.43,6.34-.13,12.69-.26,19.03-.4,5.2-.11,10.4-.22,15.6-.33,3.51-.07,7.02-.15,10.52-.22.98-.02,1.96-.04,2.94-.06-1.76.63-3.94,1.38-6.48,2.21-3.45.07-6.9.14-10.36.22-5.53.12-11.05.23-16.58.35-6.52.14-13.03.27-19.55.41-7.04.15-14.08.29-21.11.44-6.92.14-13.85.29-20.77.43-6.34.13-12.69.26-19.03.4-5.2.11-10.4.22-15.6.33-3.28.07-6.56.14-9.84.21-1.24-.64-2.46-1.31-3.65-2,1.65-.05,3.3-.06,4.95-.1ZM10.99,24.03l147.41-3.07.04,17.94-147.41,3.07-2.37.05c-1.64-1.06-3.22-2.17-4.75-3.34-1.67-1.27-2.63-3.27-2.63-5.48s.95-4.25,2.61-5.59c1.52-1.23,3.1-2.41,4.73-3.53l2.37-.05ZM16.55,19.96c3.97-.08,7.95-.17,11.92-.25,5.53-.12,11.05-.23,16.58-.35,6.52-.14,13.03-.27,19.55-.41,7.04-.15,14.08-.29,21.11-.44s13.85-.29,20.77-.43c6.34-.13,12.69-.26,19.03-.4,5.2-.11,10.4-.22,15.6-.33,2.35-.05,4.71-.1,7.06-.15,2.56.73,4.75,1.39,6.5,1.94-1.67.06-3.34.06-5.01.1-3.97.08-7.95.17-11.92.25-5.53.12-11.05.23-16.58.35l-19.55.41c-7.04.15-14.08.29-21.11.44-6.92.14-13.85.29-20.77.43-6.34.13-12.69.26-19.03.4-5.2.11-10.4.22-15.6.33-3.51.07-7.02.15-10.52.22l-3,.06c1.19-.74,2.4-1.46,3.63-2.15.45,0,.89-.01,1.34-.02Z"/>
  <path class="st0" d="M1.28,32.96c0,2.21.97,4.21,2.63,5.48,1.53,1.17,3.11,2.28,4.75,3.34l2.37-.05,147.41-3.07-.04-17.94L10.99,23.79l-2.37.05c-1.63,1.13-3.21,2.3-4.73,3.53-1.66,1.34-2.61,3.38-2.61,5.59Z"/>
  <path class="st1" d="M14.58,21.83c3.51-.07,7.02-.15,10.52-.22,5.2-.11,10.4-.22,15.6-.33,6.34-.13,12.69-.26,19.03-.4,6.93-.14,13.85-.29,20.77-.43s14.08-.29,21.11-.44c6.52-.14,13.03-.27,19.55-.41l16.58-.35c3.97-.08,7.95-.17,11.92-.25,1.67-.03,3.34-.04,5.01-.1-1.76-.55-3.95-1.21-6.5-1.94l-7.06.15c-5.2.11-10.4.22-15.6.33-6.34.13-12.69.26-19.03.4-6.92.14-13.85.29-20.77.43-7.04.15-14.08.29-21.11.44-6.52.14-13.03.27-19.55.41-5.53.12-11.05.23-16.58.35-3.97.08-7.95.17-11.92.25-.45,0-.89.02-1.34.02-1.24.69-2.45,1.41-3.63,2.15l3-.06Z"/>
  <path class="st3" d="M15.32,45.63c3.28-.07,6.56-.14,9.84-.21,5.2-.11,10.4-.22,15.6-.33,6.34-.13,12.69-.26,19.03-.4,6.93-.14,13.85-.29,20.77-.43,7.04-.15,14.08-.29,21.11-.44,6.52-.14,13.03-.27,19.55-.41,5.53-.12,11.05-.23,16.58-.35,3.45-.07,6.9-.14,10.36-.22,2.54-.83,4.72-1.58,6.48-2.21-.98.02-1.96.04-2.94.06-3.51.07-7.02.15-10.52.22-5.2.11-10.4.22-15.6.33-6.34.13-12.69.26-19.03.4-6.92.14-13.85.29-20.77.43-7.04.15-14.08.29-21.11.44-6.52.14-13.03.27-19.55.41-5.53.12-11.05.23-16.58.35-3.97.08-7.95.17-11.92.25-1.65.03-3.3.04-4.95.1,1.19.69,2.41,1.36,3.65,2Z"/>
  <text class="st4" transform="translate(11.66 35.28) rotate(-.75) scale(1.72 1) skewX(-.72)"><tspan x="0" y="0" xml:space="preserve">SURFSIDE  DINER</tspan></text>
</svg>